<?xml version="1.0" standalone="no"?>
<!DOCTYPE svg PUBLIC "-//W3C//DTD SVG 20010904//EN"
 "http://www.w3.org/TR/2001/REC-SVG-20010904/DTD/svg10.dtd">
<svg version="1.0" xmlns="http://www.w3.org/2000/svg"
 width="200.000000pt" height="200.000000pt" viewBox="0 0 200.000000 200.000000"
 preserveAspectRatio="xMidYMid meet">
<metadata>
Created by potrace 1.16, written by Peter Selinger 2001-2019
</metadata>
<g transform="translate(0.000000,200.000000) scale(0.100000,-0.100000)"
fill="#000000" stroke="none">
<path d="M865 1890 c-203 -32 -391 -132 -531 -283 -159 -172 -234 -368 -234
-615 0 -440 310 -801 753 -878 469 -82 934 232 1032 698 25 115 21 292 -9 409
-81 321 -328 566 -655 650 -88 23 -268 32 -356 19z m338 -81 c286 -72 505
-282 597 -574 31 -99 39 -282 16 -396 -62 -310 -299 -559 -611 -643 -97 -26
-245 -31 -350 -11 -312 58 -547 265 -648 568 -29 86 -31 102 -31 242 -1 179
11 234 84 380 74 150 173 257 319 344 184 111 411 144 624 90z"/>
<path d="M913 1809 c-327 -33 -611 -276 -699 -599 -25 -91 -26 -319 -1 -410
24 -90 97 -234 154 -305 106 -131 274 -239 438 -281 97 -25 294 -25 390 0 283
74 495 278 585 561 34 108 39 292 11 410 -27 113 -84 231 -155 321 -167 215
-446 331 -723 303z m257 -94 c36 -9 108 -37 160 -62 79 -39 109 -61 180 -133
98 -98 140 -164 183 -287 29 -82 31 -98 32 -223 0 -114 -4 -147 -23 -210 -79
-253 -270 -438 -522 -506 -89 -24 -271 -24 -360 0 -251 68 -443 254 -522 506
-19 63 -23 96 -23 210 1 125 3 141 32 223 37 106 81 179 152 258 94 105 221
183 361 220 83 23 260 24 350 4z"/>
<path d="M910 1711 c-235 -33 -447 -184 -549 -393 -95 -193 -94 -444 1 -633
85 -168 229 -292 415 -358 82 -29 97 -31 223 -31 119 0 145 4 215 27 298 98
495 368 495 677 0 383 -288 689 -670 714 -41 2 -100 1 -130 -3z m134 -177 c9
-8 16 -23 16 -32 0 -10 22 -28 56 -46 74 -39 120 -100 139 -183 l7 -33 -261 0
-261 0 0 23 c0 66 82 172 157 203 18 8 33 20 33 27 0 7 7 23 16 35 18 26 74
30 98 6z m264 -356 l-3 -33 -305 0 -305 0 -3 33 -3 32 311 0 311 0 -3 -32z
m-540 -200 c16 -16 15 -37 -2 -70 -13 -25 -13 -28 0 -28 26 0 9 -25 -19 -28
-23 -3 -27 -8 -27 -33 0 -36 24 -48 49 -25 10 9 21 16 24 16 13 0 7 -23 -10
-42 -17 -19 -78 -25 -88 -8 -4 7 -12 7 -25 0 -53 -29 -80 4 -63 77 13 58 39
51 35 -9 -4 -48 4 -58 26 -36 15 15 16 58 2 58 -15 0 -12 27 4 33 7 3 16 18
19 34 5 27 40 73 55 73 5 0 13 -5 20 -12z m220 0 c19 -19 14 -73 -8 -93 -24
-22 -25 -33 -3 -57 16 -18 17 -18 45 9 39 38 59 18 24 -24 -23 -27 -24 -32
-11 -50 8 -11 11 -23 8 -27 -11 -11 -41 -6 -46 8 -4 10 -19 12 -55 8 -27 -2
-59 1 -71 7 -29 16 -28 61 3 90 19 18 23 28 16 49 -13 49 17 91 66 92 11 0 25
-5 32 -12z m-414 -17 c20 -22 18 -66 -4 -66 -8 0 -17 11 -20 25 -7 28 -42 39
-66 20 -25 -21 -15 -38 39 -67 41 -22 53 -34 55 -56 7 -58 -64 -91 -132 -63
-30 13 -36 20 -36 45 0 24 4 31 19 31 13 0 21 -8 23 -22 3 -20 9 -23 43 -23
33 0 40 3 40 19 0 13 -16 28 -50 45 -51 26 -61 44 -51 85 11 45 107 63 140 27z
m771 -6 c45 -44 28 -96 -41 -126 -35 -16 -44 -25 -44 -45 0 -61 -48 -85 -86
-43 -24 27 -24 120 0 167 36 69 125 94 171 47z m107 -85 c7 0 8 -17 3 -46 -9
-61 14 -56 29 7 15 62 42 61 38 -1 l-2 -45 23 45 c26 52 43 51 39 -2 -2 -36 9
-50 23 -28 9 15 25 12 25 -4 0 -8 -13 -23 -29 -32 -21 -12 -33 -30 -40 -61
-20 -77 -82 -112 -89 -49 -3 22 5 37 32 65 l35 36 -92 0 -92 0 -3 29 c-6 50
39 103 76 90 8 -2 18 -4 24 -4z"/>
</g>
</svg>
